<?xml version="1.0" encoding="UTF-8"?>
<!DOCTYPE svg PUBLIC "-//W3C//DTD SVG 1.1//EN" "http://www.w3.org/Graphics/SVG/1.1/DTD/svg11.dtd">
<svg xmlns="http://www.w3.org/2000/svg" version="1.1" width="431px" height="599px" style="shape-rendering:geometricPrecision; text-rendering:geometricPrecision; image-rendering:optimizeQuality; fill-rule:evenodd; clip-rule:evenodd" xmlns:xlink="http://www.w3.org/1999/xlink">
<g><path style="opacity:1" fill="#0b1115" d="M -0.5,0.5 C 10.1667,0.5 20.8333,0.5 31.5,0.5C 30.1565,7.17877 28.8232,13.8454 27.5,20.5C 23.0929,27.8605 21.0929,35.8605 21.5,44.5C 20.6672,99.9985 20.1672,155.665 20,211.5C 14.7419,218.583 7.90852,223.583 -0.5,226.5C -0.5,151.167 -0.5,75.8333 -0.5,0.5 Z"/></g>
<g><path style="opacity:1" fill="#101117" d="M 31.5,0.5 C 92.5009,0.333338 153.501,0.500005 214.5,1C 208.569,2.65133 202.569,4.31799 196.5,6C 215.338,6.16827 234.004,6.66827 252.5,7.5C 185.499,7.33334 118.499,7.5 51.5,8C 47.4648,8.87354 43.4648,9.87354 39.5,11C 38.4293,11.8518 37.4293,12.6851 36.5,13.5C 33.2139,15.4512 30.2139,17.7846 27.5,20.5C 28.8232,13.8454 30.1565,7.17877 31.5,0.5 Z"/></g>
<g><path style="opacity:1" fill="#030a08" d="M 391.5,0.5 C 404.5,0.5 417.5,0.5 430.5,0.5C 430.5,61.5 430.5,122.5 430.5,183.5C 419.007,218.52 403.173,251.52 383,282.5C 372.249,297.069 361.749,311.736 351.5,326.5C 351.333,309.163 351.5,291.83 352,274.5C 375.542,235.872 389.875,194.205 395,149.5C 398.057,148.549 401.223,148.216 404.5,148.5C 405.389,138.566 406.723,128.733 408.5,119C 407.81,109.043 407.143,99.0431 406.5,89C 406.645,88.228 406.978,87.5613 407.5,87C 406.246,75.5628 404.246,64.2295 401.5,53C 404.417,51.4725 407.417,50.1392 410.5,49C 410.069,38.3241 406.236,28.4908 399,19.5C 399.267,23.0709 400.1,26.5709 401.5,30C 400.846,38.3527 400.846,46.8527 401.5,55.5C 400.811,57.444 400.311,59.444 400,61.5C 398.025,52.2538 396.025,42.9205 394,33.5C 392.195,27.302 390.028,21.6353 387.5,16.5C 390.441,15.478 393.441,14.6446 396.5,14C 395.167,12 393.833,10 392.5,8C 393.167,7.33333 393.833,6.66667 394.5,6C 393.242,4.25909 392.242,2.42576 391.5,0.5 Z"/></g>
<g><path style="opacity:1" fill="#262525" d="M 323.5,9.5 C 330.271,11.0092 337.271,12.0092 344.5,12.5C 346.784,14.6831 348.118,17.3497 348.5,20.5C 348.5,22.8333 348.5,25.1667 348.5,27.5C 347.683,25.0314 347.183,22.3647 347,19.5C 345.701,20.09 344.868,21.09 344.5,22.5C 345.173,58.1599 345.84,93.8265 346.5,129.5C 346.48,130.726 346.147,131.726 345.5,132.5C 344.84,96.8292 344.173,61.1626 343.5,25.5C 336.646,25.9114 329.98,24.9114 323.5,22.5C 323.808,20.076 323.474,17.7427 322.5,15.5C 321.833,20.6511 321.166,25.6511 320.5,30.5C 320.5,25.8333 320.5,21.1667 320.5,16.5C 320.707,13.7594 321.707,11.4261 323.5,9.5 Z"/></g>
<g><path style="opacity:1" fill="#1f1f1f" d="M 279.5,31.5 C 280.826,205.653 280.826,379.653 279.5,553.5C 279.5,385.167 279.5,216.833 279.5,48.5C 280.437,40.5424 278.104,33.709 272.5,28C 269.833,26.6667 267.167,25.3333 264.5,24C 191.833,23.3333 119.167,23.3333 46.5,24C 38.6612,27.8358 33.8278,34.0025 32,42.5C 31.5,69.8313 31.3334,97.1646 31.5,124.5C 31.5,266.833 31.5,409.167 31.5,551.5C 29.9819,450.171 29.3152,348.671 29.5,247C 29.6667,176.833 29.8333,106.667 30,36.5C 30.1471,32.912 30.9805,29.5787 32.5,26.5C 35.0943,21.4064 39.0943,17.9064 44.5,16C 47.8333,15.6667 51.1667,15.3333 54.5,15C 121.167,14.3333 187.833,14.3333 254.5,15C 266.577,15.0263 274.91,20.5263 279.5,31.5 Z"/></g>
<g><path style="opacity:1" fill="#272727" d="M 262.5,8.5 C 268.73,9.00392 274.063,11.3373 278.5,15.5C 277.761,15.369 277.094,15.5357 276.5,16C 284.433,23.0369 288.1,31.8702 287.5,42.5C 287.667,70.502 287.5,98.502 287,126.5C 286.667,96.8333 286.333,67.1667 286,37.5C 285.5,212.166 285.333,386.833 285.5,561.5C 285.167,561.5 284.833,561.5 284.5,561.5C 284.667,385.166 284.5,208.833 284,32.5C 281.692,20.9887 274.859,14.1554 263.5,12C 207.168,11.5 150.834,11.3333 94.5,11.5C 150.508,10.9651 206.508,9.96505 262.5,8.5 Z"/></g>
<g><path style="opacity:1" fill="#060f0d" d="M 391.5,0.5 C 392.242,2.42576 393.242,4.25909 394.5,6C 393.833,6.66667 393.167,7.33333 392.5,8C 393.833,10 395.167,12 396.5,14C 393.441,14.6446 390.441,15.478 387.5,16.5C 390.028,21.6353 392.195,27.302 394,33.5C 396.025,42.9205 398.025,52.2538 400,61.5C 400.311,59.444 400.811,57.444 401.5,55.5C 400.846,46.8527 400.846,38.3527 401.5,30C 400.1,26.5709 399.267,23.0709 399,19.5C 406.236,28.4908 410.069,38.3241 410.5,49C 407.417,50.1392 404.417,51.4725 401.5,53C 404.246,64.2295 406.246,75.5628 407.5,87C 406.978,87.5613 406.645,88.228 406.5,89C 407.143,99.0431 407.81,109.043 408.5,119C 406.723,128.733 405.389,138.566 404.5,148.5C 401.223,148.216 398.057,148.549 395,149.5C 389.875,194.205 375.542,235.872 352,274.5C 351.5,291.83 351.333,309.163 351.5,326.5C 351.5,385.833 351.5,445.167 351.5,504.5C 351.831,531.005 351.498,557.339 350.5,583.5C 350.333,436.5 350.5,289.5 351,142.5C 353,141.833 355,141.167 357,140.5C 357.831,105.998 357.664,71.6642 356.5,37.5C 356.158,36.6618 355.492,36.3284 354.5,36.5C 353.432,35.5655 352.099,35.2322 350.5,35.5C 350.666,28.1591 350.5,20.8258 350,13.5C 349.727,11.6711 348.893,10.1711 347.5,9C 340.274,7.40555 332.94,7.07222 325.5,8C 324.584,8.27842 323.918,8.77842 323.5,9.5C 321.707,11.4261 320.707,13.7594 320.5,16.5C 319.683,18.9686 319.183,21.6353 319,24.5C 315.182,19.7148 311.015,15.2148 306.5,11C 309.833,9 313.167,7 316.5,5C 315.122,3.28663 313.455,1.9533 311.5,1C 338.165,0.500026 364.831,0.333359 391.5,0.5 Z"/></g>
<g><path style="opacity:1" fill="#2d2d2d" d="M 279.5,48.5 C 278.667,105.665 278.167,162.999 278,220.5C 277.828,210.441 276.995,200.441 275.5,190.5C 276.167,186.5 276.833,182.5 277.5,178.5C 276.833,174.5 276.167,170.5 275.5,166.5C 276.823,160.564 277.49,154.564 277.5,148.5C 272.833,148.5 268.167,148.5 263.5,148.5C 263.5,152.5 263.5,156.5 263.5,160.5C 259.5,160.5 255.5,160.5 251.5,160.5C 251.5,164.5 251.5,168.5 251.5,172.5C 247.5,172.5 243.5,172.5 239.5,172.5C 239.5,176.5 239.5,180.5 239.5,184.5C 235.5,184.5 231.5,184.5 227.5,184.5C 227.5,188.5 227.5,192.5 227.5,196.5C 223.833,196.5 220.167,196.5 216.5,196.5C 216.665,200.182 216.499,203.848 216,207.5C 212.27,208.46 208.437,208.793 204.5,208.5C 204.665,212.182 204.499,215.848 204,219.5C 200.27,220.46 196.437,220.793 192.5,220.5C 192.5,224.167 192.5,227.833 192.5,231.5C 184.5,231.5 176.5,231.5 168.5,231.5C 168.5,235.5 168.5,239.5 168.5,243.5C 164.5,243.5 160.5,243.5 156.5,243.5C 156.5,247.5 156.5,251.5 156.5,255.5C 152.5,255.5 148.5,255.5 144.5,255.5C 144.5,259.5 144.5,263.5 144.5,267.5C 136.833,267.5 129.167,267.5 121.5,267.5C 121.5,271.5 121.5,275.5 121.5,279.5C 117.5,279.5 113.5,279.5 109.5,279.5C 109.5,283.5 109.5,287.5 109.5,291.5C 101.5,291.5 93.5,291.5 85.5,291.5C 85.5,295.5 85.5,299.5 85.5,303.5C 81.5,303.5 77.5,303.5 73.5,303.5C 73.5,307.5 73.5,311.5 73.5,315.5C 65.5,315.5 57.5,315.5 49.5,315.5C 49.5,319.167 49.5,322.833 49.5,326.5C 43.8333,326.5 38.1667,326.5 32.5,326.5C 32.8325,258.998 32.4992,191.665 31.5,124.5C 31.3334,97.1646 31.5,69.8313 32,42.5C 33.8278,34.0025 38.6612,27.8358 46.5,24C 119.167,23.3333 191.833,23.3333 264.5,24C 267.167,25.3333 269.833,26.6667 272.5,28C 278.104,33.709 280.437,40.5424 279.5,48.5 Z"/></g>
<g><path style="opacity:1" fill="#060606" d="M 94.5,11.5 C 150.834,11.3333 207.168,11.5 263.5,12C 274.859,14.1554 281.692,20.9887 284,32.5C 284.5,208.833 284.667,385.166 284.5,561.5C 284.531,566.731 283.531,571.731 281.5,576.5C 280.504,576.586 279.671,576.252 279,575.5C 279,579.927 277.833,580.427 275.5,577C 276.551,575.615 277.884,574.615 279.5,574C 279.384,572.732 279.051,571.398 278.5,570C 279.126,569.25 279.626,568.416 280,567.5C 280.333,563.167 280.667,558.833 281,554.5C 281.667,381.833 281.667,209.167 281,36.5C 280.802,34.6183 280.302,32.9516 279.5,31.5C 274.91,20.5263 266.577,15.0263 254.5,15C 187.833,14.3333 121.167,14.3333 54.5,15C 51.1667,15.3333 47.8333,15.6667 44.5,16C 39.0943,17.9064 35.0943,21.4064 32.5,26.5C 31.6043,27.5063 30.9377,27.5063 30.5,26.5C 32.995,20.6868 36.995,16.1868 42.5,13C 59.7954,11.6045 77.1288,11.1045 94.5,11.5 Z"/></g>
<g><path style="opacity:1" fill="#dcdcdc" d="M 354.5,36.5 C 355.492,36.3284 356.158,36.6618 356.5,37.5C 356.663,39.8568 356.497,42.1902 356,44.5C 355.848,40.8476 354.014,38.5142 350.5,37.5C 351.689,36.5713 353.022,36.238 354.5,36.5 Z"/></g>
<g><path style="opacity:1" fill="#0e0e0e" d="M 27.5,36.5 C 28.3408,213.027 28.8408,389.694 29,566.5C 28.7216,565.584 28.2216,564.918 27.5,564.5C 26.1687,388.627 26.1687,212.627 27.5,36.5 Z"/></g>
<g><path style="opacity:1" fill="#111717" d="M -0.5,0.5 C -0.5,0.166667 -0.5,-0.166667 -0.5,-0.5C 143.167,-0.5 286.833,-0.5 430.5,-0.5C 430.5,-0.166667 430.5,0.166667 430.5,0.5C 417.5,0.5 404.5,0.5 391.5,0.5C 364.831,0.333359 338.165,0.500026 311.5,1C 313.455,1.9533 315.122,3.28663 316.5,5C 313.167,7 309.833,9 306.5,11C 311.015,15.2148 315.182,19.7148 319,24.5C 319.183,21.6353 319.683,18.9686 320.5,16.5C 320.5,21.1667 320.5,25.8333 320.5,30.5C 320.5,79.5 320.5,128.5 320.5,177.5C 319.668,152.67 319.168,127.67 319,102.5C 315.637,118.661 310.137,133.995 302.5,148.5C 298.833,148.5 295.167,148.5 291.5,148.5C 291.5,152.5 291.5,156.5 291.5,160.5C 290.833,118.833 290.167,77.1667 289.5,35.5C 288.95,27.0621 285.283,20.3954 278.5,15.5C 274.063,11.3373 268.73,9.00392 262.5,8.5C 259.167,8.16667 255.833,7.83333 252.5,7.5C 234.004,6.66827 215.338,6.16827 196.5,6C 202.569,4.31799 208.569,2.65133 214.5,1C 153.501,0.500005 92.5009,0.333338 31.5,0.5C 20.8333,0.5 10.1667,0.5 -0.5,0.5 Z"/></g>
<g><path style="opacity:1" fill="#494a4a" d="M 289.5,35.5 C 290.167,77.1667 290.833,118.833 291.5,160.5C 291.5,160.833 291.5,161.167 291.5,161.5C 290.596,162.209 290.263,163.209 290.5,164.5C 289.501,121.67 289.168,78.6699 289.5,35.5 Z"/></g>
<g><path style="opacity:1" fill="#3f3f3f" d="M 287.5,42.5 C 288.79,72.6803 288.79,103.014 287.5,133.5C 286.835,276.736 286.168,419.402 285.5,561.5C 285.333,386.833 285.5,212.166 286,37.5C 286.333,67.1667 286.667,96.8333 287,126.5C 287.5,98.502 287.667,70.502 287.5,42.5 Z"/></g>
<g><path style="opacity:1" fill="#575757" d="M 24.5,127.5 C 24.3333,274.167 24.5,420.834 25,567.5C 26.2255,573.951 29.0589,579.618 33.5,584.5C 33.3764,585.107 33.0431,585.44 32.5,585.5C 25.5805,579.989 22.0805,572.656 22,563.5C 21.5,534.169 21.3334,504.835 21.5,475.5C 21.5,473.833 21.5,472.167 21.5,470.5C 22.3331,326.667 22.8331,182.667 23,38.5C 23.1676,68.3362 23.6676,98.0028 24.5,127.5 Z"/></g>
<g><path style="opacity:1" fill="#333333" d="M 348.5,20.5 C 349.167,208.833 349.833,397.167 350.5,585.5C 350.129,589.205 348.129,591.205 344.5,591.5C 343.933,590.58 344.599,590.246 346.5,590.5C 346.491,588.692 346.991,587.025 348,585.5C 348.5,399.5 348.667,213.5 348.5,27.5C 348.5,25.1667 348.5,22.8333 348.5,20.5 Z"/></g>
<g><path style="opacity:1" fill="#555655" d="M 354.5,36.5 C 353.022,36.238 351.689,36.5713 350.5,37.5C 354.014,38.5142 355.848,40.8476 356,44.5C 356.497,42.1902 356.663,39.8568 356.5,37.5C 357.664,71.6642 357.831,105.998 357,140.5C 355,141.167 353,141.833 351,142.5C 350.5,289.5 350.333,436.5 350.5,583.5C 350.5,584.167 350.5,584.833 350.5,585.5C 349.833,397.167 349.167,208.833 348.5,20.5C 348.118,17.3497 346.784,14.6831 344.5,12.5C 337.271,12.0092 330.271,11.0092 323.5,9.5C 323.918,8.77842 324.584,8.27842 325.5,8C 332.94,7.07222 340.274,7.40555 347.5,9C 348.893,10.1711 349.727,11.6711 350,13.5C 350.5,20.8258 350.666,28.1591 350.5,35.5C 352.099,35.2322 353.432,35.5655 354.5,36.5 Z"/></g>
<g><path style="opacity:1" fill="#111111" d="M 355.5,47.5 C 355.193,74.5187 355.526,101.519 356.5,128.5C 355.98,131.912 355.147,135.245 354,138.5C 353.29,139.973 352.124,140.64 350.5,140.5C 350.5,132.167 350.5,123.833 350.5,115.5C 351.822,115.67 352.989,115.337 354,114.5C 354.168,91.9963 354.668,69.6629 355.5,47.5 Z"/></g>
<g><path style="opacity:1" fill="#484848" d="M 350.5,56.5 C 351.5,56.5 352.5,56.5 353.5,56.5C 353.5,75.5 353.5,94.5 353.5,113.5C 352.5,113.5 351.5,113.5 350.5,113.5C 350.5,94.5 350.5,75.5 350.5,56.5 Z"/></g>
<g><path style="opacity:1" fill="#303030" d="M 355.5,47.5 C 354.668,69.6629 354.168,91.9963 354,114.5C 352.989,115.337 351.822,115.67 350.5,115.5C 350.5,114.833 350.5,114.167 350.5,113.5C 351.5,113.5 352.5,113.5 353.5,113.5C 353.5,94.5 353.5,75.5 353.5,56.5C 352.5,56.5 351.5,56.5 350.5,56.5C 350.5,52.5 350.5,48.5 350.5,44.5C 353.034,44.2591 354.7,45.2591 355.5,47.5 Z"/></g>
<g><path style="opacity:1" fill="#638a7d" d="M 291.5,161.5 C 292.833,174.5 292.833,187.5 291.5,200.5C 290.505,188.678 290.172,176.678 290.5,164.5C 290.263,163.209 290.596,162.209 291.5,161.5 Z"/></g>
<g><path style="opacity:1" fill="#010705" d="M 430.5,183.5 C 430.5,206.167 430.5,228.833 430.5,251.5C 420.805,272.875 410.805,294.208 400.5,315.5C 402.884,316.011 404.884,317.011 406.5,318.5C 405.833,318.5 405.167,318.5 404.5,318.5C 399.432,317.303 394.266,317.97 389,320.5C 388.138,322.087 387.471,323.754 387,325.5C 386.5,332.826 386.334,340.159 386.5,347.5C 383.956,347.104 381.789,347.771 380,349.5C 379.502,352.482 379.335,355.482 379.5,358.5C 376.305,365.576 373.471,372.909 371,380.5C 370.204,389.375 369.037,398.375 367.5,407.5C 368.115,414.372 368.115,421.372 367.5,428.5C 368.04,429.748 368.707,430.915 369.5,432C 369.353,433.974 369.019,435.974 368.5,438C 369.905,441.387 370.905,444.72 371.5,448C 371.043,448.414 370.709,448.914 370.5,449.5C 371.219,452.313 371.886,455.146 372.5,458C 372.355,458.772 372.022,459.439 371.5,460C 373.551,476.734 375.551,493.734 377.5,511C 377.663,521.736 376.996,532.903 375.5,544.5C 375.618,559.935 373.618,575.268 369.5,590.5C 370.237,593.095 370.237,595.762 369.5,598.5C 365.833,598.5 362.167,598.5 358.5,598.5C 357.952,580.276 357.952,562.776 358.5,546C 357.5,541 356.5,536 355.5,531C 355.5,527 355.5,523 355.5,519C 354.378,514.288 353.045,509.455 351.5,504.5C 351.5,445.167 351.5,385.833 351.5,326.5C 361.749,311.736 372.249,297.069 383,282.5C 403.173,251.52 419.007,218.52 430.5,183.5 Z"/></g>
<g><path style="opacity:1" fill="#07120f" d="M 320.5,177.5 C 320.5,233.167 320.5,288.833 320.5,344.5C 319.668,310.002 319.168,275.336 319,240.5C 310.956,250.045 302.122,258.712 292.5,266.5C 291.549,271.77 291.215,277.103 291.5,282.5C 290.182,271.931 290.182,261.265 291.5,250.5C 292.833,237.5 292.833,224.5 291.5,211.5C 290.167,207.833 290.167,204.167 291.5,200.5C 292.833,187.5 292.833,174.5 291.5,161.5C 291.5,161.167 291.5,160.833 291.5,160.5C 291.5,156.5 291.5,152.5 291.5,148.5C 295.167,148.5 298.833,148.5 302.5,148.5C 310.137,133.995 315.637,118.661 319,102.5C 319.168,127.67 319.668,152.67 320.5,177.5 Z"/></g>
<g><path style="opacity:1" fill="#0f1115" d="M 21.5,44.5 C 21.5,186.5 21.5,328.5 21.5,470.5C 21.5,472.167 21.5,473.833 21.5,475.5C 20.8826,475.611 20.3826,475.944 20,476.5C 15.4302,471.936 11.2635,467.103 7.5,462C 5.18291,459.843 2.51624,458.343 -0.5,457.5C -0.5,380.5 -0.5,303.5 -0.5,226.5C 7.90852,223.583 14.7419,218.583 20,211.5C 20.1672,155.665 20.6672,99.9985 21.5,44.5 Z"/></g>
<g><path style="opacity:1" fill="#628a7c" d="M 291.5,211.5 C 292.833,224.5 292.833,237.5 291.5,250.5C 290.167,237.5 290.167,224.5 291.5,211.5 Z"/></g>
<g><path style="opacity:1" fill="#020d0a" d="M 320.5,344.5 C 320.333,425.501 320.5,506.501 321,587.5C 321.726,590.288 323.56,591.788 326.5,592C 332.681,592.819 338.681,592.653 344.5,591.5C 348.129,591.205 350.129,589.205 350.5,585.5C 350.5,584.833 350.5,584.167 350.5,583.5C 351.498,557.339 351.831,531.005 351.5,504.5C 353.045,509.455 354.378,514.288 355.5,519C 355.5,523 355.5,527 355.5,531C 356.5,536 357.5,541 358.5,546C 357.952,562.776 357.952,580.276 358.5,598.5C 305.5,598.5 252.5,598.5 199.5,598.5C 198.766,597.292 198.433,595.959 198.5,594.5C 217.836,594.667 237.17,594.5 256.5,594C 261.953,593.637 267.286,592.637 272.5,591C 273.571,590.148 274.571,589.315 275.5,588.5C 285.202,582.254 290.036,573.254 290,561.5C 290.333,475.833 290.667,390.167 291,304.5C 292.132,301.016 292.632,297.349 292.5,293.5C 292.465,289.751 292.131,286.084 291.5,282.5C 291.215,277.103 291.549,271.77 292.5,266.5C 302.122,258.712 310.956,250.045 319,240.5C 319.168,275.336 319.668,310.002 320.5,344.5 Z"/></g>
<g><path style="opacity:1" fill="#000403" d="M 430.5,251.5 C 430.5,367.167 430.5,482.833 430.5,598.5C 410.167,598.5 389.833,598.5 369.5,598.5C 370.237,595.762 370.237,593.095 369.5,590.5C 373.618,575.268 375.618,559.935 375.5,544.5C 376.996,532.903 377.663,521.736 377.5,511C 375.551,493.734 373.551,476.734 371.5,460C 372.022,459.439 372.355,458.772 372.5,458C 371.886,455.146 371.219,452.313 370.5,449.5C 370.709,448.914 371.043,448.414 371.5,448C 370.905,444.72 369.905,441.387 368.5,438C 369.019,435.974 369.353,433.974 369.5,432C 368.707,430.915 368.04,429.748 367.5,428.5C 368.115,421.372 368.115,414.372 367.5,407.5C 369.037,398.375 370.204,389.375 371,380.5C 373.471,372.909 376.305,365.576 379.5,358.5C 379.168,390.338 379.502,422.004 380.5,453.5C 381.99,455.28 383.99,455.946 386.5,455.5C 386.333,498.501 386.5,541.501 387,584.5C 387.232,585.737 387.732,586.737 388.5,587.5C 388.36,589.124 389.027,590.29 390.5,591C 397.492,591.5 404.492,591.666 411.5,591.5C 412.609,591.443 413.609,591.11 414.5,590.5C 416.874,587.314 417.874,583.647 417.5,579.5C 417.667,494.499 417.5,409.499 417,324.5C 415.309,319.565 411.809,317.565 406.5,318.5C 404.884,317.011 402.884,316.011 400.5,315.5C 410.805,294.208 420.805,272.875 430.5,251.5 Z"/></g>
<g><path style="opacity:1" fill="#2d2e2e" d="M 287.5,133.5 C 287.667,278.167 287.5,422.834 287,567.5C 285.887,575.426 282.054,581.426 275.5,585.5C 277.474,582.518 279.474,579.518 281.5,576.5C 283.531,571.731 284.531,566.731 284.5,561.5C 284.833,561.5 285.167,561.5 285.5,561.5C 286.168,419.402 286.835,276.736 287.5,133.5 Z"/></g>
<g><path style="opacity:1" fill="#555756" d="M 278.5,15.5 C 285.283,20.3954 288.95,27.0621 289.5,35.5C 289.168,78.6699 289.501,121.67 290.5,164.5C 290.172,176.678 290.505,188.678 291.5,200.5C 290.167,204.167 290.167,207.833 291.5,211.5C 290.167,224.5 290.167,237.5 291.5,250.5C 290.182,261.265 290.182,271.931 291.5,282.5C 292.131,286.084 292.465,289.751 292.5,293.5C 292.632,297.349 292.132,301.016 291,304.5C 290.667,390.167 290.333,475.833 290,561.5C 290.036,573.254 285.202,582.254 275.5,588.5C 274.761,588.631 274.094,588.464 273.5,588C 274.381,587.292 275.047,586.458 275.5,585.5C 282.054,581.426 285.887,575.426 287,567.5C 287.5,422.834 287.667,278.167 287.5,133.5C 288.79,103.014 288.79,72.6803 287.5,42.5C 288.1,31.8702 284.433,23.0369 276.5,16C 277.094,15.5357 277.761,15.369 278.5,15.5 Z"/></g>
<g><path style="opacity:1" fill="#0b0b0b" d="M 389.5,388.5 C 389.5,388.167 389.5,387.833 389.5,387.5C 389.035,367.099 389.535,346.766 391,326.5C 395.901,323.17 401.234,322.504 407,324.5C 409.379,324.518 411.546,323.851 413.5,322.5C 414.799,323.09 415.632,324.09 416,325.5C 416.667,334.167 416.667,342.833 416,351.5C 415.886,346.676 415.053,342.01 413.5,337.5C 407.246,340.693 400.579,342.359 393.5,342.5C 392.846,344.115 392.346,345.782 392,347.5C 391.667,360.833 391.333,374.167 391,387.5C 390.617,388.056 390.117,388.389 389.5,388.5 Z"/></g>
<g><path style="opacity:1" fill="#505151" d="M 36.5,13.5 C 37.2389,13.369 37.9056,13.5357 38.5,14C 31.6116,18.8815 27.1116,25.3815 25,33.5C 24.5,64.8316 24.3334,96.1649 24.5,127.5C 23.6676,98.0028 23.1676,68.3362 23,38.5C 22.8331,182.667 22.3331,326.667 21.5,470.5C 21.5,328.5 21.5,186.5 21.5,44.5C 21.0929,35.8605 23.0929,27.8605 27.5,20.5C 30.2139,17.7846 33.2139,15.4512 36.5,13.5 Z"/></g>
<g><path style="opacity:1" fill="#3e3f3e" d="M 404.5,318.5 C 400.1,320.051 395.434,320.884 390.5,321C 389.809,322.067 389.309,323.234 389,324.5C 388.171,345.671 388.337,366.671 389.5,387.5C 389.5,387.833 389.5,388.167 389.5,388.5C 389.5,390.167 389.5,391.833 389.5,393.5C 389.5,393.833 389.5,394.167 389.5,394.5C 388.501,453.998 388.168,513.664 388.5,573.5C 387.667,508.001 387.167,442.335 387,376.5C 386.667,392.5 386.333,408.5 386,424.5C 385.667,410.5 385.333,396.5 385,382.5C 384.831,396.673 384.331,410.673 383.5,424.5C 383.5,408.167 383.5,391.833 383.5,375.5C 384.209,374.596 385.209,374.263 386.5,374.5C 386.5,366.833 386.5,359.167 386.5,351.5C 383.612,351.22 382.112,352.553 382,355.5C 381.5,384.831 381.333,414.165 381.5,443.5C 381.5,443.833 381.5,444.167 381.5,444.5C 380.523,447.287 380.19,450.287 380.5,453.5C 379.502,422.004 379.168,390.338 379.5,358.5C 379.335,355.482 379.502,352.482 380,349.5C 381.789,347.771 383.956,347.104 386.5,347.5C 386.334,340.159 386.5,332.826 387,325.5C 387.471,323.754 388.138,322.087 389,320.5C 394.266,317.97 399.432,317.303 404.5,318.5 Z"/></g>
<g><path style="opacity:1" fill="#232323" d="M 383.5,375.5 C 383.5,391.833 383.5,408.167 383.5,424.5C 383.335,428.182 383.501,431.848 384,435.5C 386.61,438.749 387.11,442.416 385.5,446.5C 384.808,445.975 384.308,445.308 384,444.5C 383.329,445.252 382.496,445.586 381.5,445.5C 381.5,445.167 381.5,444.833 381.5,444.5C 381.5,444.167 381.5,443.833 381.5,443.5C 382.167,420.833 382.833,398.167 383.5,375.5 Z"/></g>
<g><path style="opacity:1" fill="#080808" d="M 383.5,375.5 C 382.833,398.167 382.167,420.833 381.5,443.5C 381.333,414.165 381.5,384.831 382,355.5C 382.112,352.553 383.612,351.22 386.5,351.5C 386.5,359.167 386.5,366.833 386.5,374.5C 385.209,374.263 384.209,374.596 383.5,375.5 Z"/></g>
<g><path style="opacity:1" fill="#1b1b1b" d="M 404.5,318.5 C 405.167,318.5 405.833,318.5 406.5,318.5C 411.809,317.565 415.309,319.565 417,324.5C 417.5,409.499 417.667,494.499 417.5,579.5C 416.819,581.158 415.985,582.825 415,584.5C 414.501,580.848 414.335,577.182 414.5,573.5C 414.5,511.5 414.5,449.5 414.5,387.5C 414.5,372.833 414.5,358.167 414.5,343.5C 408.046,346.621 401.213,348.287 394,348.5C 393.5,361.496 393.333,374.496 393.5,387.5C 392.244,389.941 392.244,392.274 393.5,394.5C 393.5,435.167 393.5,475.833 393.5,516.5C 392.532,518.607 392.198,520.941 392.5,523.5C 392.5,541.833 392.5,560.167 392.5,578.5C 391.5,578.5 390.5,578.5 389.5,578.5C 389.5,577.167 389.5,575.833 389.5,574.5C 391.251,514.673 391.751,454.673 391,394.5C 390.617,393.944 390.117,393.611 389.5,393.5C 389.5,391.833 389.5,390.167 389.5,388.5C 390.117,388.389 390.617,388.056 391,387.5C 391.333,374.167 391.667,360.833 392,347.5C 392.346,345.782 392.846,344.115 393.5,342.5C 400.579,342.359 407.246,340.693 413.5,337.5C 415.053,342.01 415.886,346.676 416,351.5C 416.667,342.833 416.667,334.167 416,325.5C 415.632,324.09 414.799,323.09 413.5,322.5C 411.546,323.851 409.379,324.518 407,324.5C 401.234,322.504 395.901,323.17 391,326.5C 389.535,346.766 389.035,367.099 389.5,387.5C 388.337,366.671 388.171,345.671 389,324.5C 389.309,323.234 389.809,322.067 390.5,321C 395.434,320.884 400.1,320.051 404.5,318.5 Z"/></g>
<g><path style="opacity:1" fill="#2f2f2f" d="M 393.5,394.5 C 398.349,394.978 403.349,394.978 408.5,394.5C 408.667,434.501 408.5,474.501 408,514.5C 407.25,515.126 406.416,515.626 405.5,516C 401.514,516.499 397.514,516.666 393.5,516.5C 393.5,475.833 393.5,435.167 393.5,394.5 Z"/></g>
<g><path style="opacity:1" fill="#363636" d="M 393.5,387.5 C 400.5,387.5 407.5,387.5 414.5,387.5C 414.5,449.5 414.5,511.5 414.5,573.5C 411.246,574.806 408.579,573.972 406.5,571C 402.514,570.501 398.514,570.334 394.5,570.5C 394.5,565.5 394.5,560.5 394.5,555.5C 398.767,555.797 402.934,555.464 407,554.5C 408.118,549.274 408.618,543.941 408.5,538.5C 408.167,533.833 407.833,529.167 407.5,524.5C 402.565,523.552 397.565,523.219 392.5,523.5C 392.198,520.941 392.532,518.607 393.5,516.5C 397.514,516.666 401.514,516.499 405.5,516C 406.416,515.626 407.25,515.126 408,514.5C 408.5,474.501 408.667,434.501 408.5,394.5C 403.349,394.978 398.349,394.978 393.5,394.5C 392.244,392.274 392.244,389.941 393.5,387.5 Z"/></g>
<g><path style="opacity:1" fill="#2f2f2f" d="M 414.5,387.5 C 407.5,387.5 400.5,387.5 393.5,387.5C 393.333,374.496 393.5,361.496 394,348.5C 401.213,348.287 408.046,346.621 414.5,343.5C 414.5,358.167 414.5,372.833 414.5,387.5 Z"/></g>
<g><path style="opacity:1" fill="#4e4e4e" d="M 388.5,573.5 C 388.132,578.364 389.466,582.698 392.5,586.5C 398.115,587.289 403.782,587.789 409.5,588C 411.491,588.374 413.158,589.207 414.5,590.5C 413.609,591.11 412.609,591.443 411.5,591.5C 411.389,590.883 411.056,590.383 410.5,590C 404.5,589.667 398.5,589.333 392.5,589C 391.382,587.926 390.382,586.76 389.5,585.5C 388.702,585.957 388.369,586.624 388.5,587.5C 387.732,586.737 387.232,585.737 387,584.5C 386.5,541.501 386.333,498.501 386.5,455.5C 386.5,454.5 386.5,453.5 386.5,452.5C 382.684,451.91 381.017,449.577 381.5,445.5C 382.496,445.586 383.329,445.252 384,444.5C 384.308,445.308 384.808,445.975 385.5,446.5C 387.11,442.416 386.61,438.749 384,435.5C 383.501,431.848 383.335,428.182 383.5,424.5C 384.331,410.673 384.831,396.673 385,382.5C 385.333,396.5 385.667,410.5 386,424.5C 386.333,408.5 386.667,392.5 387,376.5C 387.167,442.335 387.667,508.001 388.5,573.5 Z"/></g>
<g><path style="opacity:1" fill="#d7d7d7" d="M 381.5,444.5 C 381.5,444.833 381.5,445.167 381.5,445.5C 381.017,449.577 382.684,451.91 386.5,452.5C 386.5,453.5 386.5,454.5 386.5,455.5C 383.99,455.946 381.99,455.28 380.5,453.5C 380.19,450.287 380.523,447.287 381.5,444.5 Z"/></g>
<g><path style="opacity:1" fill="#100e19" d="M -0.5,457.5 C 2.51624,458.343 5.18291,459.843 7.5,462C 11.2635,467.103 15.4302,471.936 20,476.5C 20.3826,475.944 20.8826,475.611 21.5,475.5C 21.3334,504.835 21.5,534.169 22,563.5C 22.0805,572.656 25.5805,579.989 32.5,585.5C 37.5146,591.003 43.848,593.836 51.5,594C 100.499,594.5 149.499,594.667 198.5,594.5C 198.433,595.959 198.766,597.292 199.5,598.5C 142.5,598.5 85.5,598.5 28.5,598.5C 28.6646,595.482 28.498,592.482 28,589.5C 27.5,589 27,588.5 26.5,588C 17.5062,587.5 8.50617,587.334 -0.5,587.5C -0.5,544.167 -0.5,500.833 -0.5,457.5 Z"/></g>
<g><path style="opacity:1" fill="#181818" d="M 323.5,22.5 C 323.5,57.1667 323.5,91.8333 323.5,126.5C 323.5,128.5 323.5,130.5 323.5,132.5C 323.487,246.694 323.487,360.694 323.5,474.5C 323.333,505.168 323.5,535.835 324,566.5C 324.308,567.308 324.808,567.975 325.5,568.5C 326.364,566.803 327.697,565.637 329.5,565C 333.871,564.828 338.204,564.328 342.5,563.5C 343.154,561.885 343.654,560.218 344,558.5C 344.5,530.502 344.667,502.502 344.5,474.5C 345.461,472.735 345.795,470.735 345.5,468.5C 345.5,356.5 345.5,244.5 345.5,132.5C 346.147,131.726 346.48,130.726 346.5,129.5C 345.84,93.8265 345.173,58.1599 344.5,22.5C 344.868,21.09 345.701,20.09 347,19.5C 347.183,22.3647 347.683,25.0314 348.5,27.5C 348.667,213.5 348.5,399.5 348,585.5C 346.991,587.025 346.491,588.692 346.5,590.5C 344.599,590.246 343.933,590.58 344.5,591.5C 338.681,592.653 332.681,592.819 326.5,592C 323.56,591.788 321.726,590.288 321,587.5C 320.5,506.501 320.333,425.501 320.5,344.5C 320.5,288.833 320.5,233.167 320.5,177.5C 320.5,128.5 320.5,79.5 320.5,30.5C 321.166,25.6511 321.833,20.6511 322.5,15.5C 323.474,17.7427 323.808,20.076 323.5,22.5 Z"/></g>
<g><path style="opacity:1" fill="#2e2e2e" d="M 323.5,474.5 C 324.167,493.004 324.833,511.671 325.5,530.5C 326.333,512.176 326.833,493.842 327,475.5C 332.741,474.525 338.575,474.192 344.5,474.5C 344.667,502.502 344.5,530.502 344,558.5C 343.654,560.218 343.154,561.885 342.5,563.5C 338.204,564.328 333.871,564.828 329.5,565C 327.697,565.637 326.364,566.803 325.5,568.5C 324.808,567.975 324.308,567.308 324,566.5C 323.5,535.835 323.333,505.168 323.5,474.5 Z"/></g>
<g><path style="opacity:1" fill="#252525" d="M 345.5,132.5 C 345.5,244.5 345.5,356.5 345.5,468.5C 344.883,468.389 344.383,468.056 344,467.5C 343.206,355.663 343.706,243.996 345.5,132.5 Z"/></g>
<g><path style="opacity:1" fill="#2f2f2f" d="M 323.5,22.5 C 329.98,24.9114 336.646,25.9114 343.5,25.5C 344.173,61.1626 344.84,96.8292 345.5,132.5C 343.706,243.996 343.206,355.663 344,467.5C 344.383,468.056 344.883,468.389 345.5,468.5C 345.795,470.735 345.461,472.735 344.5,474.5C 344.683,472.064 344.016,469.897 342.5,468C 337.845,467.501 333.179,467.334 328.5,467.5C 328.152,406.105 327.819,344.771 327.5,283.5C 328.314,271.212 328.814,258.879 329,246.5C 329.823,234.241 330.989,222.075 332.5,210C 332.167,209.667 331.833,209.333 331.5,209C 333.279,209.979 334.945,209.646 336.5,208C 334.192,206.064 331.525,205.231 328.5,205.5C 327.932,181.584 327.932,157.584 328.5,133.5C 333.363,133.819 338.03,133.486 342.5,132.5C 345.271,130.278 344.938,128.445 341.5,127C 336.582,126.805 331.749,126.305 327,125.5C 326.239,96.6593 326.406,67.826 327.5,39C 327.333,36.1667 327.167,33.3333 327,30.5C 326.692,29.6919 326.192,29.0253 325.5,28.5C 324.833,61.3308 324.167,93.9975 323.5,126.5C 323.5,91.8333 323.5,57.1667 323.5,22.5 Z"/></g>
<g><path style="opacity:1" fill="#1a221a" d="M 334.5,302.5 C 335.822,302.67 336.989,302.337 338,301.5C 338.667,295.5 338.667,289.5 338,283.5C 336.451,280.997 334.784,280.997 333,283.5C 332.501,289.491 332.334,295.491 332.5,301.5C 331.509,294.687 331.175,287.687 331.5,280.5C 335.471,279.758 338.304,281.091 340,284.5C 340.667,290.833 340.667,297.167 340,303.5C 338.157,303.561 336.323,303.227 334.5,302.5 Z"/></g>
<g><path style="opacity:1" fill="#76d599" d="M 334.5,302.5 C 333.833,302.167 333.167,301.833 332.5,301.5C 332.334,295.491 332.501,289.491 333,283.5C 334.784,280.997 336.451,280.997 338,283.5C 338.667,289.5 338.667,295.5 338,301.5C 336.989,302.337 335.822,302.67 334.5,302.5 Z"/></g>
<g><path style="opacity:1" fill="#7bdc9d" d="M 333.5,210.5 C 335.451,210.227 336.951,210.893 338,212.5C 338.667,224.5 338.667,236.5 338,248.5C 336.333,249.833 334.667,249.833 333,248.5C 332.205,235.788 332.372,223.121 333.5,210.5 Z"/></g>
<g><path style="opacity:1" fill="#1c241b" d="M 332.5,162.5 C 332.333,174.505 332.5,186.505 333,198.5C 334.667,201.167 336.333,201.167 338,198.5C 338.667,186.5 338.667,174.5 338,162.5C 336.951,160.893 335.451,160.227 333.5,160.5C 334.209,159.596 335.209,159.263 336.5,159.5C 336.281,158.325 336.614,157.325 337.5,156.5C 338.941,157.865 340.274,159.365 341.5,161C 340.842,174.104 340.175,187.271 339.5,200.5C 336.897,201.562 334.23,201.728 331.5,201C 331.169,187.629 331.502,174.795 332.5,162.5 Z"/></g>
<g><path style="opacity:1" fill="#7ddea1" d="M 333.5,160.5 C 335.451,160.227 336.951,160.893 338,162.5C 338.667,174.5 338.667,186.5 338,198.5C 336.333,201.167 334.667,201.167 333,198.5C 332.5,186.505 332.333,174.505 332.5,162.5C 333.338,162.158 333.672,161.492 333.5,160.5 Z"/></g>
<g><path style="opacity:1" fill="#343435" d="M 323.5,132.5 C 324.167,217.001 324.833,301.668 325.5,386.5C 326.333,302.169 326.833,217.835 327,133.5C 332.072,132.529 337.238,132.195 342.5,132.5C 338.03,133.486 333.363,133.819 328.5,133.5C 327.932,157.584 327.932,181.584 328.5,205.5C 331.525,205.231 334.192,206.064 336.5,208C 334.945,209.646 333.279,209.979 331.5,209C 331.833,209.333 332.167,209.667 332.5,210C 330.989,222.075 329.823,234.241 329,246.5C 328.814,258.879 328.314,271.212 327.5,283.5C 327.819,344.771 328.152,406.105 328.5,467.5C 333.179,467.334 337.845,467.501 342.5,468C 344.016,469.897 344.683,472.064 344.5,474.5C 338.575,474.192 332.741,474.525 327,475.5C 326.833,493.842 326.333,512.176 325.5,530.5C 324.833,511.671 324.167,493.004 323.5,474.5C 323.487,360.694 323.487,246.694 323.5,132.5 Z"/></g>
<g><path style="opacity:1" fill="#3a3a3a" d="M 342.5,132.5 C 337.238,132.195 332.072,132.529 327,133.5C 326.833,217.835 326.333,302.169 325.5,386.5C 324.833,301.668 324.167,217.001 323.5,132.5C 323.5,130.5 323.5,128.5 323.5,126.5C 324.167,93.9975 324.833,61.3308 325.5,28.5C 326.192,29.0253 326.692,29.6919 327,30.5C 327.167,33.3333 327.333,36.1667 327.5,39C 326.406,67.826 326.239,96.6593 327,125.5C 331.749,126.305 336.582,126.805 341.5,127C 344.938,128.445 345.271,130.278 342.5,132.5 Z"/></g>
<g><path style="opacity:1" fill="#0f0f0f" d="M 389.5,393.5 C 390.117,393.611 390.617,393.944 391,394.5C 391.751,454.673 391.251,514.673 389.5,574.5C 389.5,514.5 389.5,454.5 389.5,394.5C 389.5,394.167 389.5,393.833 389.5,393.5 Z"/></g>
<g><path style="opacity:1" fill="#111111" d="M 30.5,26.5 C 30.9377,27.5063 31.6043,27.5063 32.5,26.5C 30.9805,29.5787 30.1471,32.912 30,36.5C 29.8333,106.667 29.6667,176.833 29.5,247C 29.3152,348.671 29.9819,450.171 31.5,551.5C 31.3367,553.857 31.5034,556.19 32,558.5C 34.4133,561.062 36.08,564.062 37,567.5C 40.3816,569.567 43.5483,571.9 46.5,574.5C 119.167,575.833 191.833,575.833 264.5,574.5C 274.175,570.809 279.175,563.809 279.5,553.5C 280.826,379.653 280.826,205.653 279.5,31.5C 280.302,32.9516 280.802,34.6183 281,36.5C 281.667,209.167 281.667,381.833 281,554.5C 280.667,558.833 280.333,563.167 280,567.5C 279.626,568.416 279.126,569.25 278.5,570C 279.051,571.398 279.384,572.732 279.5,574C 277.884,574.615 276.551,575.615 275.5,577C 277.833,580.427 279,579.927 279,575.5C 279.671,576.252 280.504,576.586 281.5,576.5C 279.474,579.518 277.474,582.518 275.5,585.5C 271.818,587.674 267.818,589.174 263.5,590C 257.175,590.5 250.842,590.666 244.5,590.5C 179.499,590.667 114.499,590.5 49.5,590C 47.26,589.023 44.9267,588.523 42.5,588.5C 33.4716,583.127 28.4716,575.127 27.5,564.5C 28.2216,564.918 28.7216,565.584 29,566.5C 28.8408,389.694 28.3408,213.027 27.5,36.5C 27.5902,32.7858 28.5902,29.4525 30.5,26.5 Z"/></g>
<g><path style="opacity:1" fill="#292929" d="M 279.5,48.5 C 279.5,216.833 279.5,385.167 279.5,553.5C 279.175,563.809 274.175,570.809 264.5,574.5C 191.833,575.833 119.167,575.833 46.5,574.5C 43.5483,571.9 40.3816,569.567 37,567.5C 36.08,564.062 34.4133,561.062 32,558.5C 31.5034,556.19 31.3367,553.857 31.5,551.5C 31.5,409.167 31.5,266.833 31.5,124.5C 32.4992,191.665 32.8325,258.998 32.5,326.5C 38.1667,326.5 43.8333,326.5 49.5,326.5C 49.5,322.833 49.5,319.167 49.5,315.5C 57.5,315.5 65.5,315.5 73.5,315.5C 73.5,311.5 73.5,307.5 73.5,303.5C 77.5,303.5 81.5,303.5 85.5,303.5C 85.5,299.5 85.5,295.5 85.5,291.5C 93.5,291.5 101.5,291.5 109.5,291.5C 109.5,287.5 109.5,283.5 109.5,279.5C 113.5,279.5 117.5,279.5 121.5,279.5C 121.5,275.5 121.5,271.5 121.5,267.5C 129.167,267.5 136.833,267.5 144.5,267.5C 144.5,263.5 144.5,259.5 144.5,255.5C 148.5,255.5 152.5,255.5 156.5,255.5C 156.5,251.5 156.5,247.5 156.5,243.5C 160.5,243.5 164.5,243.5 168.5,243.5C 168.5,239.5 168.5,235.5 168.5,231.5C 176.5,231.5 184.5,231.5 192.5,231.5C 192.5,227.833 192.5,224.167 192.5,220.5C 196.437,220.793 200.27,220.46 204,219.5C 204.499,215.848 204.665,212.182 204.5,208.5C 208.437,208.793 212.27,208.46 216,207.5C 216.499,203.848 216.665,200.182 216.5,196.5C 220.167,196.5 223.833,196.5 227.5,196.5C 227.5,192.5 227.5,188.5 227.5,184.5C 231.5,184.5 235.5,184.5 239.5,184.5C 239.5,180.5 239.5,176.5 239.5,172.5C 243.5,172.5 247.5,172.5 251.5,172.5C 251.5,168.5 251.5,164.5 251.5,160.5C 255.5,160.5 259.5,160.5 263.5,160.5C 263.5,156.5 263.5,152.5 263.5,148.5C 268.167,148.5 272.833,148.5 277.5,148.5C 277.49,154.564 276.823,160.564 275.5,166.5C 276.167,170.5 276.833,174.5 277.5,178.5C 276.833,182.5 276.167,186.5 275.5,190.5C 276.995,200.441 277.828,210.441 278,220.5C 278.167,162.999 278.667,105.665 279.5,48.5 Z"/></g>
<g><path style="opacity:1" fill="#2a2a2a" d="M 389.5,394.5 C 389.5,454.5 389.5,514.5 389.5,574.5C 389.5,575.833 389.5,577.167 389.5,578.5C 390.5,578.5 391.5,578.5 392.5,578.5C 392.5,560.167 392.5,541.833 392.5,523.5C 397.565,523.219 402.565,523.552 407.5,524.5C 407.833,529.167 408.167,533.833 408.5,538.5C 408.618,543.941 408.118,549.274 407,554.5C 402.934,555.464 398.767,555.797 394.5,555.5C 394.5,560.5 394.5,565.5 394.5,570.5C 398.514,570.334 402.514,570.501 406.5,571C 408.579,573.972 411.246,574.806 414.5,573.5C 414.335,577.182 414.501,580.848 415,584.5C 415.985,582.825 416.819,581.158 417.5,579.5C 417.874,583.647 416.874,587.314 414.5,590.5C 413.158,589.207 411.491,588.374 409.5,588C 403.782,587.789 398.115,587.289 392.5,586.5C 389.466,582.698 388.132,578.364 388.5,573.5C 388.168,513.664 388.501,453.998 389.5,394.5 Z"/></g>
<g><path style="opacity:1" fill="#000000" d="M -0.5,587.5 C 8.50617,587.334 17.5062,587.5 26.5,588C 27,588.5 27.5,589 28,589.5C 28.498,592.482 28.6646,595.482 28.5,598.5C 18.8333,598.5 9.16667,598.5 -0.5,598.5C -0.5,594.833 -0.5,591.167 -0.5,587.5 Z"/></g>
<g><path style="opacity:1" fill="#818181" d="M 411.5,591.5 C 404.492,591.666 397.492,591.5 390.5,591C 389.027,590.29 388.36,589.124 388.5,587.5C 388.369,586.624 388.702,585.957 389.5,585.5C 390.382,586.76 391.382,587.926 392.5,589C 398.5,589.333 404.5,589.667 410.5,590C 411.056,590.383 411.389,590.883 411.5,591.5 Z"/></g>
<g><path style="opacity:1" fill="#383839" d="M 252.5,7.5 C 255.833,7.83333 259.167,8.16667 262.5,8.5C 206.508,9.96505 150.508,10.9651 94.5,11.5C 77.1288,11.1045 59.7954,11.6045 42.5,13C 36.995,16.1868 32.995,20.6868 30.5,26.5C 28.5902,29.4525 27.5902,32.7858 27.5,36.5C 26.1687,212.627 26.1687,388.627 27.5,564.5C 28.4716,575.127 33.4716,583.127 42.5,588.5C 43.842,589.793 45.5087,590.626 47.5,591C 113.335,591.832 179.001,591.665 244.5,590.5C 250.842,590.666 257.175,590.5 263.5,590C 267.818,589.174 271.818,587.674 275.5,585.5C 275.047,586.458 274.381,587.292 273.5,588C 274.094,588.464 274.761,588.631 275.5,588.5C 274.571,589.315 273.571,590.148 272.5,591C 267.286,592.637 261.953,593.637 256.5,594C 237.17,594.5 217.836,594.667 198.5,594.5C 149.499,594.667 100.499,594.5 51.5,594C 43.848,593.836 37.5146,591.003 32.5,585.5C 33.0431,585.44 33.3764,585.107 33.5,584.5C 29.0589,579.618 26.2255,573.951 25,567.5C 24.5,420.834 24.3333,274.167 24.5,127.5C 24.3334,96.1649 24.5,64.8316 25,33.5C 27.1116,25.3815 31.6116,18.8815 38.5,14C 37.9056,13.5357 37.2389,13.369 36.5,13.5C 37.4293,12.6851 38.4293,11.8518 39.5,11C 43.4648,9.87354 47.4648,8.87354 51.5,8C 118.499,7.5 185.499,7.33334 252.5,7.5 Z"/></g>
<g><path style="opacity:1" fill="#272727" d="M 42.5,588.5 C 44.9267,588.523 47.26,589.023 49.5,590C 114.499,590.5 179.499,590.667 244.5,590.5C 179.001,591.665 113.335,591.832 47.5,591C 45.5087,590.626 43.842,589.793 42.5,588.5 Z"/></g>
</svg>
